<?xml version="1.0" encoding="utf-8"?>
<!-- Generator: Adobe Illustrator 12.0.0, SVG Export Plug-In . SVG Version: 6.00 Build 51448)  -->
<!DOCTYPE svg PUBLIC "-//W3C//DTD SVG 1.1//EN" "http://www.w3.org/Graphics/SVG/1.1/DTD/svg11.dtd" [
	<!ENTITY ns_svg "http://www.w3.org/2000/svg">
	<!ENTITY ns_xlink "http://www.w3.org/1999/xlink">
]>
<svg  version="1.1" id="Layer_1" xmlns="&ns_svg;" xmlns:xlink="&ns_xlink;" width="640" height="640" viewBox="0 0 640 640"
	 overflow="visible" enable-background="new 0 0 640 640" xml:space="preserve">
<g>
	<line fill="#2E3192" x1="485" y1="471" x2="485" y2="63"/>
	<g>
		<line fill="none" x1="485" y1="471" x2="485" y2="63"/>
		<path fill="#2E3192" d="M494.896,464.466c0-34.08,0-68.16,0-102.239c0-64.268,0-128.536,0-192.804c0-37.498,0-74.995,0-112.492
			c0-0.155,0-0.31,0-0.465c0-5.95-3.837-8.835-9.186-5.303c-5.523,3.647-10.607,11.594-10.607,18.372c0,34.08,0,68.16,0,102.24
			c0,64.268,0,128.536,0,192.803c0,37.497,0,74.995,0,112.492c0,0.155,0,0.31,0,0.465c0,5.95,3.837,8.835,9.186,5.303
			C489.813,479.19,494.896,471.243,494.896,464.466L494.896,464.466z"/>
	</g>
</g>
<ellipse fill="#2E3192" stroke="#008FD4" stroke-width="2" cx="428" cy="471.893" rx="66" ry="38.893"/>
<g>
	<line fill="#2E3192" x1="212" y1="162" x2="475" y2="64"/>
	<g>
		<line fill="none" x1="212" y1="162" x2="475" y2="64"/>
		<path fill="#2E3192" d="M205.604,188.219c40.556-15.112,81.113-30.225,121.669-45.337c46.478-17.319,92.955-34.637,139.434-51.956
			c0.632-0.236,1.265-0.472,1.897-0.708c12.955-4.827,22.071-20.068,25.183-32.855c2.105-8.649,0.67-24.449-12.392-19.582
			c-40.557,15.112-81.112,30.224-121.669,45.336c-46.478,17.319-92.956,34.637-139.433,51.956c-0.633,0.236-1.265,0.472-1.898,0.707
			c-12.955,4.828-22.072,20.069-25.183,32.856C191.108,177.286,192.543,193.086,205.604,188.219L205.604,188.219z"/>
	</g>
</g>
<g id="XMLID_7_">
	<g>
		<path fill="#69BD45" d="M626.65,326.369l-0.448,3.892c-14.454,51.106-43.252,78.735-79.22,91.317v-0.13
			c-42.468,5.059-75.411-29.704-109.698-56.555c0.784-26.851-4.706-52.533-1.905-80.292c1.905-29.186,6.499-48.642,16.808-75.752
			l-1.008-6.745c4.033-0.648,7.955-1.297,11.877-1.816C534.992,190.171,600.99,213.13,626.65,326.369z"/>
		<path fill="#808284" d="M370.613,332.725c11.205,1.557,22.41,4.93,33.728,10.637c1.905,0.908,3.922,1.945,5.827,3.113
			c9.188,5.059,18.152,11.544,27.116,18.419c34.287,26.851,67.23,61.613,109.698,56.555v0.13
			c-78.437,27.498-191.271-16.215-266.01-40.989c-8.292-2.595-16.472-4.8-24.427-6.615l0.561-3.632
			c0.336-0.26,0.56-0.39,0.896-0.648c8.292-5.838,16.808-11.285,25.324-16.085c9.636-5.447,19.273-9.987,29.133-13.619
			c9.412-3.373,18.824-5.967,28.461-7.135C350.669,331.428,360.529,331.298,370.613,332.725z"/>
		<path fill="#43BB92" d="M309.098,140.881c49.862,4.41,172.559,25.553,153.958,59.019v0.389c-3.922,0.519-7.844,1.167-11.877,1.816
			c-12.55,2.464-25.212,5.708-37.874,9.599c-11.429,3.373-22.858,7.394-34.063,11.544
			C381.034,192.636,338.903,165.396,309.098,140.881z"/>
		<path fill="#F26522" d="M451.179,202.105l1.008,6.745c-10.309,27.11-14.902,46.566-16.808,75.752
			c-2.801,27.758,2.689,53.441,1.905,80.292c-8.964-6.875-17.929-13.36-27.116-18.419c-1.905-1.168-3.922-2.205-5.827-3.113
			l0.225-0.389c-4.706-40.211-4.706-91.966,9.3-128.675l-0.561-2.594C425.967,207.813,438.629,204.569,451.179,202.105z"/>
		<path fill="#69BD45" d="M379.241,223.248c11.205-4.151,22.635-8.172,34.063-11.544l0.561,2.594
			c-14.006,36.708-14.006,88.464-9.3,128.675l-0.225,0.389c-11.317-5.707-22.522-9.08-33.728-10.637
			c-7.844-29.185-1.568-72.379-1.568-102.213l-0.896-2.854C371.846,226.231,375.544,224.675,379.241,223.248z"/>
		<path fill="#F26522" d="M368.148,227.658l0.896,2.854c0,29.834-6.275,73.028,1.568,102.213
			c-10.084-1.427-19.944-1.297-29.693,0.13c-9.3-26.591-14.566-55.776-8.852-90.149
			C343.722,237.776,355.823,232.587,368.148,227.658z"/>
		<path fill="#69BD45" d="M332.068,242.705c-5.715,34.374-0.448,63.559,8.852,90.149c-9.637,1.168-19.049,3.762-28.461,7.135
			l-0.336-1.428c-9.3-26.59-14.903-50.198-14.903-78.864l-0.448-1.297C307.865,253.601,319.63,248.282,332.068,242.705z"/>
		<path fill="#F26522" d="M312.123,338.562l0.336,1.428c-9.86,3.632-19.497,8.172-29.133,13.619
			c-13.894-25.164-20.729-49.031-19.721-79.902l-0.672-2.724v-0.129c8.516-2.335,17.256-5.448,26.108-8.95
			c2.577-1.038,5.154-2.205,7.731-3.502l0.448,1.297C297.22,288.363,302.823,311.971,312.123,338.562z"/>
		<path fill="#69BD45" d="M263.605,273.706c-1.009,30.872,5.827,54.738,19.721,79.902c-8.516,4.8-17.032,10.247-25.324,16.085
			l-1.008-1.946c-18.488-25.813-23.194-57.981-24.203-90.15c9.749-1.427,19.833-3.632,30.142-6.615L263.605,273.706z"/>
		<path fill="#F26522" d="M256.994,367.747l1.008,1.946c-0.336,0.259-0.56,0.389-0.896,0.648l-0.561,3.632
			c-12.774-2.983-25.211-4.93-37.201-5.967c-19.273-29.964-21.066-52.793-22.747-88.853c11.766,0.908,23.755,0.389,36.192-1.557
			C233.799,309.766,238.505,341.935,256.994,367.747z"/>
		<path fill="#69BD45" d="M219.345,368.007c-10.757-1.168-21.178-1.427-31.375-0.908v-1.427
			c-16.583-28.018-23.418-59.667-23.531-92.225c10.421,3.113,21.178,4.929,32.159,5.707
			C198.279,315.214,200.072,338.043,219.345,368.007z"/>
		<path fill="#F26522" d="M187.97,365.672v1.427c-11.205,0.389-22.186,1.816-32.831,4.15
			c-16.472-25.683-17.144-77.957-14.118-106.623c7.731,3.632,15.463,6.616,23.418,8.691v0.13
			C164.552,306.004,171.387,337.654,187.97,365.672z"/>
		<path fill="#43BB92" d="M141.021,264.626c-3.025,28.667-2.354,80.94,14.118,106.623c-41.459,8.691-79.332,31.002-116.533,67.58
			l-0.896-1.297c33.728-59.278,11.317-200.794-1.568-266.947l2.689-0.389C72.109,216.503,105.5,247.764,141.021,264.626z"/>
	</g>
	<g>
		<path fill="none" stroke="#A2CD3A" d="M463.056,199.9c18.601-33.466-104.096-54.609-153.958-59.019
			c-2.689-0.13-5.154-0.389-7.396-0.519"/>
		<path fill="none" stroke="#A2CD3A" d="M379.241,224.026c0-0.259,0.112-0.519,0-0.778c1.793-30.612-40.338-57.852-70.144-82.367
			c-0.896-0.778-1.793-1.427-2.689-2.205"/>
		<path fill="none" stroke="#A2CD3A" d="M164.439,273.447c10.421,3.113,21.178,4.929,32.159,5.707
			c11.766,0.908,23.755,0.389,36.192-1.557c9.749-1.427,19.833-3.632,30.142-6.615v-0.129c8.516-2.335,17.256-5.448,26.108-8.95
			c2.577-1.038,5.154-2.205,7.731-3.502c11.093-4.799,22.858-10.118,35.296-15.695c11.653-4.929,23.755-10.118,36.08-15.047
			c3.697-1.427,7.396-2.983,11.093-4.41c11.205-4.151,22.635-8.172,34.063-11.544c12.662-3.891,25.324-7.134,37.874-9.599
			c4.033-0.648,7.955-1.297,11.877-1.816c71.937-10.118,137.935,12.841,163.595,126.08"/>
		<path fill="none" stroke="#A2CD3A" d="M38.83,170.196c33.279,46.307,66.67,77.568,102.191,94.43
			c7.731,3.632,15.463,6.616,23.418,8.691"/>
		<path fill="none" stroke="#A2CD3A" d="M25.72,452.06c4.258-4.539,8.516-8.949,12.886-13.23
			c37.201-36.578,75.074-58.889,116.533-67.58c10.645-2.334,21.626-3.762,32.831-4.15c10.197-0.519,20.617-0.26,31.375,0.908
			c11.989,1.037,24.427,2.983,37.201,5.967c7.956,1.815,16.135,4.021,24.427,6.615c74.738,24.774,187.573,68.487,266.01,40.989
			c35.968-12.582,64.766-40.211,79.22-91.317"/>
		<path fill="none" stroke="#A2CD3A" d="M36.141,170.585c12.886,66.153,35.296,207.669,1.568,266.947"/>
		<path fill="none" stroke="#A2CD3A" d="M546.982,421.448c-42.468,5.059-75.411-29.704-109.698-56.555
			c-8.964-6.875-17.929-13.36-27.116-18.419c-1.905-1.168-3.922-2.205-5.827-3.113c-11.317-5.707-22.522-9.08-33.728-10.637
			c-10.084-1.427-19.944-1.297-29.693,0.13c-9.637,1.168-19.049,3.762-28.461,7.135c-9.86,3.632-19.497,8.172-29.133,13.619
			c-8.516,4.8-17.032,10.247-25.324,16.085c-0.336,0.259-0.56,0.389-0.896,0.648"/>
		<path fill="none" stroke="#A2CD3A" d="M312.123,338.562c-9.3-26.59-14.903-50.198-14.903-78.864"/>
		<path fill="none" stroke="#A2CD3A" d="M256.994,367.747c-18.488-25.813-23.194-57.981-24.203-90.15c0-0.259,0-0.389,0-0.648"/>
		<path fill="none" stroke="#A2CD3A" d="M437.284,365.672c0-0.26,0-0.519,0-0.778c0.784-26.851-4.706-52.533-1.905-80.292
			c1.905-29.186,6.499-48.642,16.808-75.752"/>
		<path fill="none" stroke="#A2CD3A" d="M187.97,365.672c-16.583-28.018-23.418-59.667-23.531-92.225v-0.13
			c0-2.335,0-4.799,0.112-7.134"/>
		<path fill="none" stroke="#A2CD3A" d="M413.865,214.298c-14.006,36.708-14.006,88.464-9.3,128.675"/>
		<path fill="none" stroke="#A2CD3A" d="M332.292,241.278c-0.112,0.519-0.112,0.908-0.224,1.427
			c-5.715,34.374-0.448,63.559,8.852,90.149c0.225,0.39,0.336,0.778,0.448,1.168"/>
		<path fill="none" stroke="#A2CD3A" d="M369.045,230.512c0,29.834-6.275,73.028,1.568,102.213c0.112,0.52,0.225,1.038,0.337,1.557"
			/>
		<path fill="none" stroke="#A2CD3A" d="M263.605,273.706c-1.009,30.872,5.827,54.738,19.721,79.902
			c0.112,0.13,0.112,0.26,0.224,0.39"/>
		<path fill="none" stroke="#A2CD3A" d="M196.374,273.706c0.112,1.816,0.112,3.632,0.224,5.448
			c1.681,36.06,3.474,58.889,22.747,88.853c0.336,0.648,0.784,1.297,1.232,1.945"/>
		<path fill="none" stroke="#A2CD3A" d="M141.245,262.292c-0.112,0.778-0.224,1.556-0.224,2.334
			c-3.025,28.667-2.354,80.94,14.118,106.623c1.457,2.335,3.025,4.41,4.818,6.227"/>
	</g>
</g>
<g>
	<g>
		<g>
			<path fill="none" d="M460.017,198.225c20.401-32.918-116.309-56.937-159.786-60.636"/>
			<path fill="#A2CD3A" d="M464.906,201.648c15.432-25.807-29.097-40.798-45.971-46.384
				c-33.634-11.134-69.207-17.724-104.311-22.134c-4.601-0.578-9.211-1.086-13.831-1.485c-7.679-0.664-8.789,11.225-1.126,11.888
				c32.811,2.836,65.793,9.072,97.555,17.682c15.316,4.152,31.18,8.841,45.105,16.623c4.922,2.751,9.002,5.469,12.137,9.501
				c0.635,0.815,1.425,2.675,1.546,3.255c0.092,0.441,0.13,0.89,0.168,1.338c-0.134-1.593-0.074-0.146-0.104,0.203
				c-0.023,0.279-0.359,1.731-0.001,0.314c-0.16,0.634-0.409,1.242-0.664,1.843c-0.648,1.527,0.609-0.982-0.283,0.511
				C451.197,201.374,460.948,208.267,464.906,201.648L464.906,201.648z"/>
		</g>
	</g>
	<g>
		<g>
			<path fill="none" d="M374.669,219.906c2.506-30.308-42.742-56.826-72.898-80.827"/>
			<path fill="#A2CD3A" d="M380.612,220.469c1.197-18.801-11.563-34.144-24.519-46.22c-15.825-14.749-33.98-26.656-50.9-40.059
				c-6.046-4.79-12.858,5.017-6.847,9.778c15.384,12.187,31.717,23.158,46.508,36.09c11.053,9.665,24.887,23.308,23.87,39.284
				C368.236,227.023,380.124,228.149,380.612,220.469L380.612,220.469z"/>
		</g>
	</g>
</g>
<g>
	<g>
		<g>
			<path fill="none" d="M40.696,168.086c74.891,104.074,149.868,132.019,250.168,91.609
				c105.78-46.134,290.348-144.28,337.619,64.554"/>
			<path fill="#A2CD3A" d="M36.144,171.948c28.15,38.987,62.029,76.277,106.323,96.876c38.219,17.773,80.94,17.788,121.003,6.554
				c33.205-9.311,64.08-25.928,95.829-39.146c30.539-12.713,61.877-24.107,94.462-30.272c29.437-5.57,60.691-6.535,88.983,4.62
				c31.534,12.433,52.622,39.778,65.753,70.115c6.208,14.345,10.628,29.374,14.108,44.59c1.71,7.477,13.475,5.44,11.756-2.072
				c-8.83-38.607-24.195-77.375-54.679-103.988c-23.198-20.252-53.707-28.926-84.065-29.208
				c-32.945-0.306-65.358,7.914-96.388,18.318c-30.874,10.353-60.67,23.605-90.377,36.865
				c-36.386,16.241-74.087,29.346-114.575,25.522c-43.074-4.068-79.92-28.542-109.542-58.785
				c-14.46-14.764-27.401-30.974-39.487-47.713C40.743,157.984,31.659,165.736,36.144,171.948L36.144,171.948z"/>
		</g>
	</g>
	<g>
		<g>
			<path fill="none" d="M27.632,449.919c75.535-81.146,152.055-102.997,255.245-71.481c108.91,36.001,299.102,112.523,345.18-50.352
				"/>
			<path fill="#A2CD3A" d="M31.494,454.472c32.725-35.023,71.725-65.631,118.86-77.854c45.105-11.696,92.986-5.113,136.616,9.469
				c33.621,11.237,67.092,22.938,101.366,32.078c35.476,9.46,72.234,16.783,109.11,15.844c29.338-0.746,58.332-7.292,82.934-23.833
				c27.555-18.525,44.312-48.716,53.275-80.018c2.11-7.369-9.078-11.544-11.197-4.145c-9.959,34.775-29.409,66.021-62.641,82.392
				c-30.293,14.923-65.638,15.581-98.552,12.02c-36.978-4-73.107-13.94-108.493-25.072c-37.543-11.81-74.262-26.811-113.252-33.288
				c-38.363-6.374-77.587-3.763-114.063,10.065c-39.545,14.992-73.106,42.648-101.687,73.236
				C18.583,450.918,26.233,460.102,31.494,454.472L31.494,454.472z"/>
		</g>
	</g>
	<g>
		<g>
			<path fill="none" d="M38.004,168.467c12.847,66.148,35.345,207.59,1.598,266.896"/>
			<path fill="#A2CD3A" d="M32.126,169.503c7.864,40.565,14.125,81.512,17.361,122.722c1.783,22.707,2.507,45.529,1.311,68.286
				c-1.021,19.427-3.427,39.132-9.922,57.558c-1.681,4.769-3.688,9.459-6.164,13.87c-3.734,6.653,6.009,13.565,9.778,6.848
				c8.979-16,13.266-33.995,15.832-52.036c3.087-21.708,3.35-43.798,2.643-65.677c-1.428-44.155-7.303-88.123-14.987-131.589
				c-1.302-7.363-2.674-14.714-4.097-22.055C42.419,159.88,30.66,161.941,32.126,169.503L32.126,169.503z"/>
		</g>
	</g>
</g>
<g>
	<g id="XMLID_2_">
		<g>
			<path fill="#43BB92" d="M414.426,352.182c15.463,47.864-76.083,94.949-112.164,107.013l-0.448-1.687
				c16.808-30.871,42.019-64.855,40.674-103.77C358.96,349.977,372.519,324.424,414.426,352.182z"/>
		</g>
		<g>
			<path fill="none" stroke="#A2CD3A" stroke-width="4" d="M414.426,352.182c15.463,47.864-76.083,94.949-112.164,107.013
				c-1.681,0.648-3.25,1.167-4.594,1.557"/>
			<path fill="none" stroke="#A2CD3A" stroke-width="4" d="M342.488,353.738c1.345,38.914-23.866,72.898-40.674,103.77"/>
			<path fill="none" stroke="#A2CD3A" stroke-width="4" d="M414.426,352.182c-41.907-27.758-55.466-2.205-71.938,1.557"/>
		</g>
	</g>
</g>
<g>
	<g>
		<g>
			<path fill="none" d="M416.309,349.949c16.085,50.137-84.63,99.235-116.778,108.634"/>
			<path fill="#A2CD3A" d="M410.431,350.985c8.359,27.221-19.422,50.324-38.769,64.354c-12.81,9.29-26.673,17.122-40.866,24.081
				c-10.256,5.028-22.231,10.304-32.302,13.284c-7.294,2.158-5.302,13.938,2.073,11.756c28.427-8.412,55.881-23.381,79.784-40.716
				c22.521-16.333,51.365-43.806,41.836-74.832C419.957,341.654,408.174,343.639,410.431,350.985L410.431,350.985z"/>
		</g>
	</g>
	<g>
		<g>
			<path fill="none" d="M344.352,351.57c1.399,38.914-23.812,72.964-40.619,103.771"/>
			<path fill="#A2CD3A" d="M338.408,351.007c0.995,37.841-22.178,69.215-39.565,100.911c-3.664,6.68,6.076,13.598,9.778,6.848
				c18.329-33.413,42.723-66.732,41.673-106.632C350.095,344.525,338.206,343.333,338.408,351.007L338.408,351.007z"/>
		</g>
	</g>
	<g>
		<g>
			<path fill="none" d="M416.309,349.949c-41.942-27.754-55.445-2.205-71.957,1.621"/>
			<path fill="#A2CD3A" d="M419.732,345.06c-14.2-9.242-31.039-16.915-48.262-12.522c-10.084,2.572-19.026,10.879-28.155,13.155
				c-7.427,1.852-5.404,13.62,2.072,11.756c9.294-2.317,16.692-8.751,25.495-12.265c14.535-5.802,29.905,1.781,42.002,9.655
				C419.328,359.032,426.196,349.268,419.732,345.06L419.732,345.06z"/>
		</g>
	</g>
</g>
<g>
	<g>
		<path fill="none" d="M522.291,264.015"/>
		<path fill="#007070" d="M520.883,278.874c8.126,0,15.452-4.791,16.268-13.451c0.707-7.513-5.31-16.267-13.451-16.267
			c-8.126,0-15.452,4.791-16.268,13.451C506.725,270.121,512.741,278.874,520.883,278.874L520.883,278.874z"/>
	</g>
</g>
<path fill="#FFFFFF" stroke="#FFFFFF" d="M525.92,252.137c-1.186-2.345-5.431-2.021-9.483,0.722c-4.052,2.744-6.375,6.87-5.19,9.215
	c1.186,2.345,5.431,2.022,9.483-0.722C524.781,258.608,527.104,254.482,525.92,252.137z"/>
<g>
	<linearGradient id="XMLID_16_" gradientUnits="userSpaceOnUse" x1="201.8022" y1="362.417" x2="202.8647" y2="362.417">
		<stop  offset="0" style="stop-color:#FFFFFF"/>
		<stop  offset="1" style="stop-color:#000000"/>
	</linearGradient>
	<line fill="url(#XMLID_16_)" x1="201.802" y1="556.5" x2="202.865" y2="168.333"/>
	<g>
		<line fill="none" x1="201.802" y1="556.5" x2="202.865" y2="168.333"/>
		<path fill="#2E3192" d="M211.698,549.966c0.097-35.233,0.193-70.468,0.29-105.702c0.175-63.912,0.35-127.825,0.525-191.737
			c0.083-30.242,0.166-60.484,0.248-90.727c0.017-5.958-3.848-8.828-9.186-5.304c-5.535,3.655-10.588,11.587-10.606,18.371
			c-0.097,35.234-0.193,70.468-0.29,105.703c-0.175,63.913-0.35,127.825-0.525,191.737c-0.083,30.242-0.166,60.485-0.248,90.728
			c-0.017,5.957,3.848,8.827,9.186,5.303C206.627,564.683,211.68,556.751,211.698,549.966L211.698,549.966z"/>
	</g>
</g>
<ellipse fill="#2E3192" stroke="#008FD4" stroke-width="2" cx="143.169" cy="553.214" rx="66.831" ry="38.785"/>
<rect fill="none" width="640" height="640"/>
<ellipse transform="matrix(0.9071 -0.4209 0.4209 0.9071 -216.5302 95.9016)" fill="#FFFFFF" stroke="#00ADEF" cx="109" cy="538.5" rx="23" ry="11.5"/>
<ellipse transform="matrix(0.8244 -0.5661 0.5661 0.8244 -191.5865 301.8835)" fill="#FFFFFF" stroke="#00ADEF" cx="390.666" cy="459.667" rx="23" ry="11.5"/>
</svg>
