<?xml version="1.0" encoding="utf-8"?>
<!-- Generator: Adobe Illustrator 12.0.0, SVG Export Plug-In . SVG Version: 6.00 Build 51448)  -->
<!DOCTYPE svg PUBLIC "-//W3C//DTD SVG 1.1//EN" "http://www.w3.org/Graphics/SVG/1.1/DTD/svg11.dtd" [
	<!ENTITY ns_svg "http://www.w3.org/2000/svg">
	<!ENTITY ns_xlink "http://www.w3.org/1999/xlink">
]>
<svg  version="1.1" id="Layer_1" xmlns="&ns_svg;" xmlns:xlink="&ns_xlink;" width="640" height="640" viewBox="0 0 640 640"
	 overflow="visible" enable-background="new 0 0 640 640" xml:space="preserve">
<g id="XMLID_7_">
	<g>
		<path fill="#69BD45" d="M622.65,326.588l-0.448,4.638c-14.454,60.911-43.252,93.841-79.22,108.837v-0.154
			c-42.468,6.029-75.411-35.403-109.698-67.405c0.784-32.002-4.706-62.612-1.905-95.696c1.905-34.785,6.499-57.974,16.808-90.285
			l-1.008-8.039c4.033-0.773,7.955-1.546,11.877-2.164C530.992,164.26,596.99,191.624,622.65,326.588z"/>
		<path fill="#808284" d="M366.613,334.163c11.205,1.855,22.41,5.875,33.728,12.677c1.905,1.082,3.922,2.319,5.827,3.71
			c9.188,6.03,18.152,13.76,27.116,21.953c34.287,32.002,67.23,73.435,109.698,67.405v0.154
			c-78.437,32.774-191.271-19.325-266.01-48.853c-8.292-3.093-16.472-5.721-24.427-7.885l0.561-4.329
			c0.336-0.309,0.56-0.464,0.896-0.772c8.292-6.957,16.808-13.45,25.324-19.171c9.636-6.493,19.273-11.903,29.133-16.232
			c9.412-4.02,18.824-7.111,28.461-8.503C346.669,332.617,356.529,332.462,366.613,334.163z"/>
		<path fill="#43BB92" d="M305.098,105.513c49.862,5.256,172.559,30.456,153.958,70.342v0.464
			c-3.922,0.618-7.844,1.391-11.877,2.164c-12.55,2.938-25.212,6.802-37.874,11.44c-11.429,4.02-22.858,8.812-34.063,13.759
			C377.034,167.197,334.903,134.732,305.098,105.513z"/>
		<path fill="#F26522" d="M447.179,178.483l1.008,8.039c-10.309,32.311-14.902,55.5-16.808,90.285
			c-2.801,33.084,2.689,63.694,1.905,95.696c-8.964-8.193-17.929-15.923-27.116-21.953c-1.905-1.391-3.922-2.628-5.827-3.71
			l0.225-0.464c-4.706-47.925-4.706-109.61,9.3-153.361l-0.561-3.092C421.967,185.285,434.629,181.42,447.179,178.483z"/>
		<path fill="#69BD45" d="M375.241,203.683c11.205-4.947,22.635-9.74,34.063-13.759l0.561,3.092
			c-14.006,43.751-14.006,105.436-9.3,153.361l-0.225,0.464c-11.317-6.802-22.522-10.821-33.728-12.677
			c-7.844-34.785-1.568-86.266-1.568-121.823l-0.896-3.401C367.846,207.238,371.544,205.383,375.241,203.683z"/>
		<path fill="#F26522" d="M364.148,208.939l0.896,3.401c0,35.558-6.275,87.039,1.568,121.823
			c-10.084-1.701-19.944-1.546-29.693,0.154c-9.3-31.692-14.566-66.477-8.852-107.445
			C339.722,220.998,351.823,214.813,364.148,208.939z"/>
		<path fill="#69BD45" d="M328.068,226.872c-5.715,40.968-0.448,75.753,8.852,107.445c-9.637,1.392-19.049,4.483-28.461,8.503
			l-0.336-1.7c-9.3-31.693-14.903-59.83-14.903-93.996l-0.448-1.546C303.865,239.858,315.63,233.52,328.068,226.872z"/>
		<path fill="#F26522" d="M308.123,341.12l0.336,1.7c-9.86,4.329-19.497,9.739-29.133,16.232
			c-13.894-29.991-20.729-58.438-19.721-95.232l-0.672-3.247v-0.154c8.516-2.783,17.256-6.493,26.108-10.667
			c2.577-1.237,5.154-2.628,7.731-4.174l0.448,1.546C293.22,281.291,298.823,309.427,308.123,341.12z"/>
		<path fill="#69BD45" d="M259.605,263.821c-1.009,36.794,5.827,65.241,19.721,95.232c-8.516,5.721-17.032,12.214-25.324,19.171
			l-1.008-2.319c-18.488-30.765-23.194-69.105-24.203-107.445c9.749-1.701,19.833-4.329,30.142-7.885L259.605,263.821z"/>
		<path fill="#F26522" d="M252.994,375.904l1.008,2.319c-0.336,0.309-0.56,0.464-0.896,0.772l-0.561,4.329
			c-12.774-3.556-25.211-5.875-37.201-7.111c-19.273-35.713-21.066-62.922-22.747-105.9c11.766,1.083,23.755,0.464,36.192-1.855
			C229.799,306.799,234.505,345.14,252.994,375.904z"/>
		<path fill="#69BD45" d="M215.345,376.214c-10.757-1.392-21.178-1.701-31.375-1.083v-1.7
			c-16.583-33.393-23.418-71.115-23.531-109.919c10.421,3.71,21.178,5.875,32.159,6.802
			C194.279,313.292,196.072,340.501,215.345,376.214z"/>
		<path fill="#F26522" d="M183.97,373.431v1.7c-11.205,0.464-22.186,2.165-32.831,4.947c-16.472-30.61-17.144-92.913-14.118-127.079
			c7.731,4.329,15.463,7.885,23.418,10.358v0.155C160.552,302.316,167.387,340.038,183.97,373.431z"/>
		<path fill="#43BB92" d="M137.021,252.999c-3.025,34.166-2.354,96.469,14.118,127.079c-41.459,10.358-79.332,36.949-116.533,80.546
			l-0.896-1.546c33.728-70.651,11.317-239.317-1.568-318.163l2.689-0.463C68.109,195.644,101.5,232.901,137.021,252.999z"/>
	</g>
	<g>
		<path fill="none" stroke="#A2CD3A" d="M459.056,175.855c18.601-39.886-104.096-65.086-153.958-70.342
			c-2.689-0.154-5.154-0.464-7.396-0.618"/>
		<path fill="none" stroke="#A2CD3A" d="M375.241,204.61c0-0.309,0.112-0.618,0-0.927c1.793-36.485-40.338-68.951-70.144-98.17
			c-0.896-0.927-1.793-1.7-2.689-2.628"/>
		<path fill="none" stroke="#A2CD3A" d="M160.439,263.512c10.421,3.71,21.178,5.875,32.159,6.802
			c11.766,1.083,23.755,0.464,36.192-1.855c9.749-1.701,19.833-4.329,30.142-7.885v-0.154c8.516-2.783,17.256-6.493,26.108-10.667
			c2.577-1.237,5.154-2.628,7.731-4.174c11.093-5.72,22.858-12.059,35.296-18.707c11.653-5.875,23.755-12.059,36.08-17.933
			c3.697-1.701,7.396-3.556,11.093-5.256c11.205-4.947,22.635-9.74,34.063-13.759c12.662-4.638,25.324-8.503,37.874-11.44
			c4.033-0.773,7.955-1.546,11.877-2.164c71.937-12.059,137.935,15.305,163.595,150.269"/>
		<path fill="none" stroke="#A2CD3A" d="M34.83,140.452c33.279,55.191,66.67,92.449,102.191,112.547
			c7.731,4.329,15.463,7.885,23.418,10.358"/>
		<path fill="none" stroke="#A2CD3A" d="M21.72,476.393c4.258-5.411,8.516-10.667,12.886-15.769
			c37.201-43.597,75.074-70.188,116.533-80.546c10.645-2.782,21.626-4.483,32.831-4.947c10.197-0.618,20.617-0.309,31.375,1.083
			c11.989,1.236,24.427,3.556,37.201,7.111c7.956,2.164,16.135,4.792,24.427,7.885c74.738,29.527,187.573,81.627,266.01,48.853
			c35.968-14.996,64.766-47.926,79.22-108.837"/>
		<path fill="none" stroke="#A2CD3A" d="M32.141,140.916c12.886,78.845,35.296,247.511,1.568,318.163"/>
		<path fill="none" stroke="#A2CD3A" d="M542.982,439.908c-42.468,6.029-75.411-35.403-109.698-67.405
			c-8.964-8.193-17.929-15.923-27.116-21.953c-1.905-1.391-3.922-2.628-5.827-3.71c-11.317-6.802-22.522-10.821-33.728-12.677
			c-10.084-1.701-19.944-1.546-29.693,0.154c-9.637,1.392-19.049,4.483-28.461,8.503c-9.86,4.329-19.497,9.739-29.133,16.232
			c-8.516,5.721-17.032,12.214-25.324,19.171c-0.336,0.309-0.56,0.464-0.896,0.772"/>
		<path fill="none" stroke="#A2CD3A" d="M308.123,341.12c-9.3-31.693-14.903-59.83-14.903-93.996"/>
		<path fill="none" stroke="#A2CD3A" d="M252.994,375.904c-18.488-30.765-23.194-69.105-24.203-107.445c0-0.309,0-0.464,0-0.773"/>
		<path fill="none" stroke="#A2CD3A" d="M433.284,373.431c0-0.31,0-0.618,0-0.928c0.784-32.002-4.706-62.612-1.905-95.696
			c1.905-34.785,6.499-57.974,16.808-90.285"/>
		<path fill="none" stroke="#A2CD3A" d="M183.97,373.431c-16.583-33.393-23.418-71.115-23.531-109.919v-0.155
			c0-2.783,0-5.72,0.112-8.502"/>
		<path fill="none" stroke="#A2CD3A" d="M409.865,193.015c-14.006,43.751-14.006,105.436-9.3,153.361"/>
		<path fill="none" stroke="#A2CD3A" d="M328.292,225.171c-0.112,0.619-0.112,1.083-0.224,1.701
			c-5.715,40.968-0.448,75.753,8.852,107.445c0.225,0.464,0.336,0.928,0.448,1.392"/>
		<path fill="none" stroke="#A2CD3A" d="M365.045,212.34c0,35.558-6.275,87.039,1.568,121.823c0.112,0.618,0.225,1.236,0.337,1.855"
			/>
		<path fill="none" stroke="#A2CD3A" d="M259.605,263.821c-1.009,36.794,5.827,65.241,19.721,95.232
			c0.112,0.155,0.112,0.31,0.224,0.464"/>
		<path fill="none" stroke="#A2CD3A" d="M192.374,263.821c0.112,2.165,0.112,4.329,0.224,6.493
			c1.681,42.978,3.474,70.187,22.747,105.9c0.336,0.772,0.784,1.546,1.232,2.318"/>
		<path fill="none" stroke="#A2CD3A" d="M137.245,250.216c-0.112,0.928-0.224,1.855-0.224,2.783
			c-3.025,34.166-2.354,96.469,14.118,127.079c1.457,2.783,3.025,5.257,4.818,7.421"/>
	</g>
</g>
<g>
	<g>
		<g>
			<path fill="none" d="M456.017,173.858c20.401-39.233-116.309-67.86-159.786-72.27"/>
			<path fill="#A2CD3A" d="M461.615,175.93c13.546-26.986-27.984-44.797-46.366-52.078c-32.873-13.019-68.316-20.881-103.199-26.222
				c-5.069-0.776-10.155-1.459-15.256-1.985c-7.673-0.79-8.771,11.1-1.126,11.888c32.443,3.341,64.995,10.764,96.034,20.65
				c15.532,4.947,31.335,10.663,45.148,19.466c5.01,3.193,9.275,6.495,12.763,11.236c2.045,2.779,2.917,6.683,2.312,9.086
				c-0.336,1.33-0.894,2.594-1.507,3.815C446.96,178.675,458.204,182.725,461.615,175.93L461.615,175.93z"/>
		</g>
	</g>
	<g>
		<g>
			<path fill="none" d="M370.669,199.699c2.506-36.122-42.742-67.728-72.898-96.333"/>
			<path fill="#A2CD3A" d="M376.612,200.262c1.135-20.874-10.714-38.803-24.079-53.752c-15.302-17.115-33.56-31.281-50.21-47.006
				c-5.528-5.221-14.709,2.431-9.104,7.724c15.583,14.716,32.368,28.147,47.156,43.697c12.288,12.922,25.377,29.332,24.352,48.212
				C364.309,206.815,376.195,207.947,376.612,200.262L376.612,200.262z"/>
		</g>
	</g>
</g>
<g>
	<g>
		<g>
			<path fill="none" d="M36.696,137.937c74.891,124.042,149.868,157.347,250.168,109.185
				c105.78-54.985,290.348-171.96,337.619,76.938"/>
			<path fill="#A2CD3A" d="M31.304,140.499c24.974,41.239,54.55,82.708,95.472,109.522c32.05,21.001,69.58,28.375,107.211,21.417
				c34.525-6.384,64.502-23.823,95.142-39.917c27.129-14.25,54.671-27.918,83.472-38.492c26.695-9.801,55.354-17.116,83.992-15.749
				c27.604,1.318,53.038,12.314,72.168,32.396c29.326,30.787,42.043,74.719,49.846,115.42c1.448,7.555,13.206,5.492,11.756-2.072
				c-7.806-40.716-20.466-83.063-47.485-115.446c-18.832-22.571-44.732-36.986-73.799-41.12
				c-28.626-4.071-58.064,1.635-85.332,10.253c-29.612,9.359-57.831,22.499-85.441,36.606c-28.765,14.697-56.681,32.378-87.77,41.8
				c-35.972,10.902-73.645,9.358-106.959-8.892c-44.377-24.311-75.86-68.536-101.486-110.851
				C38.146,128.864,27.31,133.905,31.304,140.499L31.304,140.499z"/>
		</g>
	</g>
	<g>
		<g>
			<path fill="none" d="M23.632,473.841c75.535-96.714,152.055-122.758,255.245-85.195c108.91,42.908,299.102,134.111,345.18-60.012
				"/>
			<path fill="#A2CD3A" d="M28.521,477.265c29.255-37.326,64.533-72.142,109.687-89.13c41.194-15.498,85.951-11.064,127.082,2.146
				c16.147,5.187,31.752,12.087,47.488,18.386c15.741,6.301,31.544,12.45,47.516,18.146c32.775,11.686,66.613,21.658,101.29,25.562
				c31.551,3.553,64.744,1.369,93.53-13.03c32.323-16.168,53.451-46.517,65.866-79.672c3.537-9.446,6.322-19.164,8.676-28.966
				c1.777-7.406-9.404-11.613-11.197-4.145c-8.755,36.47-24.741,72.683-56.321,94.826c-25.316,17.752-57.357,21.958-87.53,20.136
				c-67.152-4.056-130.389-33.441-192.051-57.842c-40.79-16.142-87.354-22.931-130.338-12.294
				c-44.633,11.044-81.787,40.127-112.15,73.649c-7.423,8.195-14.504,16.678-21.325,25.38
				C13.984,476.488,23.788,483.304,28.521,477.265L28.521,477.265z"/>
		</g>
	</g>
	<g>
		<g>
			<path fill="none" d="M34.004,138.391c12.847,78.838,35.345,247.417,1.598,318.101"/>
			<path fill="#A2CD3A" d="M28.126,139.428c6.541,40.201,11.908,80.611,15.451,121.192c3.94,45.127,6.058,91.029,0.923,136.149
				c-2.238,19.667-5.997,39.637-14.497,57.651c-3.293,6.98,7.941,11.046,11.197,4.145c7.557-16.017,11.358-33.66,13.938-51.091
				c3.153-21.301,4.06-42.919,4.133-64.429c0.159-46.286-3.985-92.589-9.69-138.486c-2.792-22.462-6.065-44.864-9.7-67.204
				C38.646,129.752,26.891,131.835,28.126,139.428L28.126,139.428z"/>
		</g>
	</g>
</g>
<g>
	<g id="XMLID_2_">
		<g>
			<path fill="#43BB92" d="M410.426,357.353c15.463,57.047-76.083,113.166-112.164,127.543l-0.448-2.01
				c16.808-36.794,42.019-77.299,40.674-123.678C354.96,354.725,368.519,324.269,410.426,357.353z"/>
		</g>
		<g>
			<path fill="none" stroke="#A2CD3A" stroke-width="4" d="M410.426,357.353c15.463,57.047-76.083,113.166-112.164,127.543
				c-1.681,0.773-3.25,1.392-4.594,1.855"/>
			<path fill="none" stroke="#A2CD3A" stroke-width="4" d="M338.488,359.208c1.345,46.379-23.866,86.884-40.674,123.678"/>
			<path fill="none" stroke="#A2CD3A" stroke-width="4" d="M410.426,357.353c-41.907-33.084-55.466-2.628-71.938,1.855"/>
		</g>
	</g>
</g>
<g>
	<g>
		<g>
			<path fill="none" d="M412.309,354.691c16.085,59.756-84.63,118.274-116.778,129.476"/>
			<path fill="#A2CD3A" d="M406.431,355.728c8.103,31.388-17.306,59.321-39.215,78.156c-21.516,18.496-47.327,35.4-74.248,44.891
				c-7.248,2.555-2.073,13.322,5.124,10.785c12.235-4.313,23.841-10.563,35.008-17.102c15.429-9.033,30.192-19.339,43.692-31.072
				c24.423-21.226,50.344-53.06,41.394-87.73C416.275,346.252,404.505,348.269,406.431,355.728L406.431,355.728z"/>
		</g>
	</g>
	<g>
		<g>
			<path fill="none" d="M340.352,356.624c1.399,46.38-23.812,86.962-40.619,123.68"/>
			<path fill="#A2CD3A" d="M334.408,356.061c1.028,44.591-22.26,83.007-40.274,122.171c-3.226,7.015,8.004,11.086,11.197,4.145
				c18.442-40.097,42.018-79.538,40.964-125.188C346.119,349.574,334.23,348.385,334.408,356.061L334.408,356.061z"/>
		</g>
	</g>
	<g>
		<g>
			<path fill="none" d="M412.309,354.691c-41.942-33.078-55.445-2.628-71.957,1.933"/>
			<path fill="#A2CD3A" d="M415.732,349.802c-14.065-10.922-31.403-20.186-49.485-14.345c-5.739,1.854-10.773,5.104-15.699,8.515
				c-3.531,2.444-8.057,5.834-11.232,6.774c-7.294,2.158-5.303,13.938,2.072,11.756c9.773-2.892,16.875-10.578,26.025-14.766
				c14.764-6.756,30.04,2.967,41.472,11.845C414.978,364.312,421.795,354.511,415.732,349.802L415.732,349.802z"/>
		</g>
	</g>
</g>
<g>
	<g>
		<path fill="none" d="M518.291,252.271"/>
		<path fill="#007070" d="M516.883,267.129c8.126,0,15.452-4.791,16.268-13.451c0.707-7.514-5.31-16.267-13.451-16.267
			c-8.126,0-15.452,4.791-16.268,13.451C502.725,258.376,508.741,267.129,516.883,267.129L516.883,267.129z"/>
	</g>
</g>
<path fill="#FFFFFF" stroke="#FFFFFF" d="M521.19,242.017c-1.186-2.795-5.431-2.409-9.483,0.861
	c-4.052,3.271-6.375,8.188-5.19,10.983c1.186,2.795,5.431,2.41,9.483-0.86C520.052,249.729,522.375,244.812,521.19,242.017z"/>
<rect fill="none" width="640" height="640"/>
</svg>
