<?xml version="1.0" encoding="utf-8"?>
<!-- Generator: Adobe Illustrator 12.0.0, SVG Export Plug-In . SVG Version: 6.00 Build 51448)  -->
<!DOCTYPE svg PUBLIC "-//W3C//DTD SVG 1.1//EN" "http://www.w3.org/Graphics/SVG/1.1/DTD/svg11.dtd" [
	<!ENTITY ns_svg "http://www.w3.org/2000/svg">
	<!ENTITY ns_xlink "http://www.w3.org/1999/xlink">
]>
<svg  version="1.1" xmlns="&ns_svg;" xmlns:xlink="&ns_xlink;" width="471.678" height="396.399" viewBox="0 0 471.678 396.399"
	 overflow="visible" enable-background="new 0 0 471.678 396.399" xml:space="preserve">
<g id="Layer_2">
	<g id="XMLID_7_">
		<g>
			<path fill="#6BBE46" d="M436.432,93.474l0.343,1c2.412,14.135-1.394,24.209-8.69,31.445l-0.016-0.032
				c-9.753,6.156-21.809,1.499-33.272-1.073c-2.924-6.638-7.242-12.263-9.782-19.354c-2.923-7.336-4.063-12.612-4.698-20.417
				l-1.028-1.527c0.906-0.626,1.786-1.239,2.681-1.819C398.309,70.892,417.042,68.84,436.432,93.474z"/>
			<path fill="#818384" d="M374.83,124.698c2.909-0.919,6.028-1.396,9.446-1.316c0.568,0,1.181,0.02,1.779,0.083
				c2.824,0.169,5.761,0.71,8.74,1.348c11.464,2.572,23.52,7.229,33.272,1.073l0.016,0.031
				c-15.907,15.795-48.452,18.216-69.525,20.839c-2.32,0.328-4.567,0.738-6.715,1.218l-0.285-0.951
				c0.051-0.102,0.091-0.16,0.143-0.262c1.341-2.384,2.783-4.7,4.299-6.857c1.715-2.445,3.534-4.669,5.513-6.696
				c1.901-1.914,3.892-3.637,6.103-5.039C369.824,126.693,372.209,125.52,374.83,124.698z"/>
			<path fill="#44BB93" d="M337.587,85.057c12.652-4.705,44.981-13.771,44.336-3.456l0.045,0.095
				c-0.895,0.581-1.774,1.194-2.681,1.819c-2.77,2.056-5.477,4.313-8.106,6.729c-2.392,2.147-4.709,4.452-6.955,6.763
				C361.108,89.336,347.69,87.579,337.587,85.057z"/>
			<path fill="#F26724" d="M379.287,83.515l1.028,1.527c0.636,7.805,1.776,13.081,4.698,20.417
				c2.54,7.092,6.858,12.716,9.782,19.354c-2.979-0.638-5.916-1.179-8.74-1.348c-0.599-0.064-1.211-0.083-1.779-0.083l0.01-0.121
				c-5.813-9.258-11.818-21.876-12.669-32.448l-0.437-0.568C373.811,87.828,376.518,85.571,379.287,83.515z"/>
			<path fill="#6BBE46" d="M364.226,97.008c2.246-2.311,4.563-4.616,6.954-6.762l0.438,0.567
				c0.85,10.573,6.856,23.191,12.669,32.448l-0.01,0.121c-3.418-0.08-6.537,0.396-9.446,1.317
				c-5.298-6.207-8.782-17.466-12.244-24.738l-0.55-0.592C362.771,98.592,363.49,97.784,364.226,97.008z"/>
			<path fill="#F26724" d="M362.036,99.369l0.55,0.592c3.462,7.272,6.946,18.532,12.243,24.737c-2.62,0.821-5.005,1.995-7.214,3.473
				c-5.351-5.405-10.021-11.91-12.618-20.952C357.263,104.666,359.607,101.998,362.036,99.369z"/>
			<path fill="#6BBE46" d="M354.998,107.218c2.597,9.043,7.267,15.548,12.617,20.953c-2.211,1.402-4.201,3.125-6.103,5.039
				l-0.247-0.31c-5.35-5.405-9.454-10.511-12.781-17.5l-0.26-0.265C350.369,112.68,352.616,110.02,354.998,107.218z"/>
			<path fill="#F26724" d="M361.266,132.9l0.247,0.31c-1.979,2.027-3.798,4.251-5.513,6.696
				c-6.303-4.524-10.736-9.551-14.074-17.194l-0.479-0.587l-0.016-0.031c1.803-1.557,3.569-3.329,5.318-5.208
				c0.508-0.552,1-1.135,1.476-1.75l0.26,0.265C351.813,122.39,355.916,127.495,361.266,132.9z"/>
			<path fill="#6BBE46" d="M341.926,122.712c3.338,7.644,7.771,12.67,14.075,17.195c-1.517,2.156-2.958,4.472-4.299,6.856
				l-0.472-0.357c-7.497-4.15-12.376-11.447-16.355-19.173c2.208-1.479,4.407-3.185,6.571-5.107L341.926,122.712z"/>
			<path fill="#F26724" d="M351.23,146.405l0.471,0.357c-0.052,0.103-0.092,0.161-0.143,0.262l0.285,0.951
				c-3.457,0.752-6.711,1.72-9.751,2.856c-8.17-5.071-11.256-10.429-15.85-19.026c2.97-1.142,5.829-2.658,8.631-4.574
				C338.854,134.958,343.733,142.255,351.23,146.405z"/>
			<path fill="#6BBE46" d="M342.093,150.832c-2.754,0.962-5.32,2.107-7.743,3.416l-0.166-0.348
				c-7.289-4.908-12.627-11.833-16.432-19.757c2.898-0.449,5.728-1.252,8.492-2.336
				C330.838,140.403,333.923,145.761,342.093,150.832z"/>
			<path fill="#F26724" d="M334.184,153.899l0.166,0.348c-2.683,1.394-5.191,3.014-7.513,4.817
				c-6.991-4.353-13.221-17.019-15.812-24.359c2.305-0.01,4.533-0.178,6.71-0.595l0.017,0.031
				C321.557,142.067,326.895,148.991,334.184,153.899z"/>
			<path fill="#44BB93" d="M311.025,134.706c2.591,7.34,8.82,20.006,15.812,24.359c-9.087,6.924-15.718,16.753-20.531,29.982
				l-0.367-0.212c1.332-18.362-20.548-50.265-31.362-64.9l0.609-0.406C288.661,130.961,300.42,134.711,311.025,134.706z"/>
		</g>
		<g>
			<path fill="none" stroke="#A1CD3B" d="M381.923,81.601c0.646-10.315-31.684-1.249-44.336,3.456c-0.668,0.28-1.3,0.502-1.861,0.73
				"/>
			<path fill="none" stroke="#A1CD3B" d="M364.316,97.197c-0.03-0.063-0.034-0.138-0.091-0.189
				c-3.116-7.671-16.535-9.429-26.639-11.951c-0.308-0.086-0.6-0.14-0.91-0.226"/>
			<path fill="none" stroke="#A1CD3B" d="M317.752,134.142c2.898-0.449,5.728-1.252,8.492-2.336c2.97-1.142,5.828-2.658,8.63-4.574
				c2.209-1.479,4.408-3.185,6.571-5.106l-0.016-0.031c1.804-1.557,3.571-3.329,5.319-5.208c0.508-0.552,0.999-1.135,1.476-1.75
				c2.146-2.456,4.391-5.116,6.772-7.917c2.266-2.552,4.609-5.22,7.039-7.85c0.733-0.777,1.454-1.585,2.188-2.361
				c2.247-2.311,4.563-4.616,6.954-6.762c2.632-2.417,5.339-4.675,8.107-6.73c0.906-0.626,1.787-1.239,2.681-1.82
				c16.341-10.804,35.076-12.855,54.465,11.777"/>
			<path fill="none" stroke="#A1CD3B" d="M275.186,123.528c13.477,7.432,25.234,11.183,35.84,11.177
				c2.305-0.01,4.533-0.178,6.71-0.595"/>
			<path fill="none" stroke="#A1CD3B" d="M304.704,193.765c0.511-1.6,1.035-3.169,1.602-4.719
				c4.813-13.229,11.444-23.058,20.531-29.982c2.321-1.803,4.83-3.423,7.513-4.817c2.423-1.309,4.989-2.453,7.743-3.416
				c3.04-1.136,6.294-2.104,9.751-2.857c2.147-0.479,4.396-0.89,6.715-1.217c21.073-2.623,53.619-5.043,69.525-20.838
				c7.297-7.236,11.103-17.311,8.69-31.445"/>
			<path fill="none" stroke="#A1CD3B" d="M274.576,123.935c10.814,14.635,32.694,46.539,31.361,64.9"/>
			<path fill="none" stroke="#A1CD3B" d="M428.068,125.887c-9.753,6.156-21.809,1.499-33.272-1.073
				c-2.979-0.638-5.916-1.179-8.74-1.348c-0.599-0.064-1.211-0.083-1.779-0.083c-3.418-0.08-6.537,0.396-9.446,1.316
				c-2.621,0.821-5.006,1.995-7.215,3.473c-2.211,1.402-4.201,3.125-6.103,5.039c-1.979,2.027-3.798,4.251-5.513,6.696
				c-1.516,2.157-2.958,4.473-4.299,6.857c-0.052,0.103-0.092,0.161-0.143,0.262"/>
			<path fill="none" stroke="#A1CD3B" d="M361.266,132.9c-5.35-5.405-9.454-10.511-12.781-17.5"/>
			<path fill="none" stroke="#A1CD3B" d="M351.23,146.405c-7.497-4.15-12.376-11.447-16.354-19.173
				c-0.031-0.063-0.046-0.095-0.076-0.158"/>
			<path fill="none" stroke="#A1CD3B" d="M394.886,125.004c-0.03-0.064-0.06-0.127-0.09-0.19
				c-2.924-6.638-7.242-12.263-9.782-19.354c-2.923-7.336-4.063-12.612-4.698-20.417"/>
			<path fill="none" stroke="#A1CD3B" d="M334.184,153.899c-7.289-4.908-12.627-11.833-16.432-19.757l-0.017-0.031
				c-0.27-0.569-0.556-1.171-0.8-1.752"/>
			<path fill="none" stroke="#A1CD3B" d="M371.617,90.813c0.85,10.573,6.856,23.191,12.669,32.448"/>
			<path fill="none" stroke="#A1CD3B" d="M354.887,106.845c0.033,0.14,0.077,0.234,0.111,0.373
				c2.597,9.043,7.267,15.548,12.617,20.953c0.1,0.069,0.172,0.151,0.245,0.233"/>
			<path fill="none" stroke="#A1CD3B" d="M362.586,99.961c3.462,7.272,6.947,18.531,12.244,24.737
				c0.087,0.113,0.175,0.227,0.263,0.34"/>
			<path fill="none" stroke="#A1CD3B" d="M341.926,122.712c3.338,7.644,7.771,12.67,14.075,17.195c0.042,0.018,0.058,0.05,0.1,0.068
				"/>
			<path fill="none" stroke="#A1CD3B" d="M325.557,130.504c0.237,0.43,0.449,0.873,0.688,1.302
				c4.594,8.597,7.679,13.955,15.849,19.026c0.158,0.119,0.343,0.226,0.526,0.332"/>
			<path fill="none" stroke="#A1CD3B" d="M310.809,134.111c0.063,0.203,0.127,0.405,0.217,0.594
				c2.591,7.34,8.82,20.006,15.812,24.359c0.626,0.4,1.248,0.725,1.896,0.959"/>
		</g>
	</g>
	<g>
		<g>
			<g>
				<path fill="none" d="M380.988,81.545c1.147-10.39-34.926-0.4-45.942,3.736"/>
				<path fill="#A1CD3B" d="M382.554,81.32c0.67-7.09-11.177-5.92-16.361-5.279c-9.271,1.146-18.667,3.647-27.68,6.597
					c-1.311,0.429-2.614,0.878-3.907,1.362c-1.945,0.728-1.055,3.287,0.882,2.563c8.227-3.078,16.875-5.332,25.394-6.906
					c4.265-0.789,8.668-1.452,12.89-1.252c1.53,0.073,2.89,0.254,4.201,0.819c0.768,0.332,1.36,1.029,1.447,1.591
					c0.048,0.312,0.034,0.634,0.004,0.955C379.252,83.58,382.384,83.105,382.554,81.32L382.554,81.32z"/>
			</g>
		</g>
		<g>
			<g>
				<path fill="none" d="M362.725,96.723c-2.908-7.679-17.002-8.899-27.129-11.256"/>
				<path fill="#A1CD3B" d="M364.227,96.149c-1.758-4.401-6.387-6.695-11.098-8.205c-5.392-1.728-11.217-2.509-16.803-3.795
					c-1.853-0.427-3.344,2.202-1.464,2.635c5.229,1.204,10.622,2.006,15.736,3.473c4.25,1.219,9.035,3.058,10.624,7.039
					C361.867,98.916,364.873,97.769,364.227,96.149L364.227,96.149z"/>
			</g>
		</g>
	</g>
	<g>
		<g>
			<g>
				<path fill="none" d="M275.394,122.798c30.313,16.692,51.812,14.815,71.544-6.661c20.399-23.508,53.949-68.828,89.694-23.393"/>
				<path fill="#A1CD3B" d="M274.331,123.947c10.096,5.541,21.335,10.595,33.91,11.338c9.848,0.581,19.704-2.26,28.188-8.045
					c7.785-5.307,13.386-12.349,19.278-19.192c5.219-6.06,10.593-12.047,16.577-17.548c5.545-5.099,11.81-9.917,18.916-12.957
					c6.849-2.93,14.113-3.628,20.727-1.738c10.138,2.899,17.513,10.411,23.375,17.833c1.088,1.377,3.749-0.407,2.66-1.787
					c-5.865-7.423-13.071-14.619-22.804-18.111c-6.782-2.434-14.492-2.381-21.972,0.143c-7.366,2.485-13.979,7.064-19.778,11.987
					c-6.3,5.347-11.891,11.306-17.239,17.392c-5.571,6.34-10.646,13.193-17.3,18.723c-7.696,6.399-17.02,10.45-26.907,10.578
					c-13.174,0.17-25.144-5.227-35.504-10.913C274.864,120.773,272.718,123.061,274.331,123.947L274.331,123.947z"/>
			</g>
		</g>
		<g>
			<g>
				<path fill="none" d="M304.922,193.022c8.973-28.538,25.068-42.734,53.852-47.01c30.695-3.847,85.884-7.235,78.2-52.284"/>
				<path fill="#A1CD3B" d="M306.445,193.157c3.489-11.027,8.688-22.237,18.028-30.945c8.521-7.945,19.85-12.226,31.149-14.291
					c4.438-0.81,8.909-1.207,13.354-1.743c4.446-0.535,8.893-1.109,13.336-1.794c9.118-1.408,18.328-3.291,27.151-6.511
					c8.029-2.931,15.897-7.224,21.505-13.506c6.295-7.054,8.484-15.711,8.278-23.932c-0.059-2.342-0.327-4.652-0.709-6.931
					c-0.288-1.721-3.42-1.285-3.129,0.451c1.42,8.475,1.054,17.735-4.479,25.925c-4.436,6.565-11.827,11.139-19.351,14.263
					c-16.746,6.953-35.004,8.272-52.394,10.428c-11.504,1.426-23.502,5.434-32.932,12.591c-9.792,7.433-16.007,17.688-20.136,28.064
					c-1.009,2.537-1.907,5.093-2.721,7.663C302.83,194.683,305.882,194.94,306.445,193.157L306.445,193.157z"/>
			</g>
		</g>
		<g>
			<g>
				<path fill="none" d="M274.783,123.203c10.805,14.638,32.698,46.514,31.363,64.884"/>
				<path fill="#A1CD3B" d="M273.452,124.096c5.509,7.466,10.75,15.109,15.563,23c5.354,8.774,10.34,17.918,13.482,27.743
					c1.369,4.282,2.399,8.804,2.083,13.472c-0.122,1.812,3.01,1.341,3.131-0.448c0.28-4.151-0.513-8.202-1.581-12.067
					c-1.308-4.723-3.191-9.25-5.269-13.658c-4.468-9.487-9.985-18.478-15.844-27.205c-2.866-4.271-5.845-8.474-8.905-12.623
					C275.072,120.897,272.413,122.686,273.452,124.096L273.452,124.096z"/>
			</g>
		</g>
	</g>
	<g>
		<g id="XMLID_2_">
			<g>
				<path fill="#44BB93" d="M387.755,124.364c9.319,9.877-7.505,31.967-14.89,39.09l-0.305-0.36
					c0.509-9.474,2.704-20.682-2.141-30.013C373.995,130.255,374.33,122.454,387.755,124.364z"/>
			</g>
			<g>
				<path fill="none" stroke="#A1CD3B" stroke-width="4" d="M387.755,124.364c9.319,9.877-7.505,31.967-14.89,39.09
					c-0.333,0.353-0.656,0.661-0.938,0.912"/>
				<path fill="none" stroke="#A1CD3B" stroke-width="4" d="M370.42,133.081c4.845,9.331,2.649,20.539,2.141,30.013"/>
				<path fill="none" stroke="#A1CD3B" stroke-width="4" d="M387.755,124.364c-13.425-1.91-13.76,5.891-17.335,8.717"/>
			</g>
		</g>
	</g>
	<g>
		<g>
			<g>
				<path fill="none" d="M387.954,123.602c9.735,10.359-9.088,34.002-15.825,40.019"/>
				<path fill="#A1CD3B" d="M386.625,124.495c5.029,5.481,1.563,14.14-1.938,20.532c-3.438,6.277-8.075,12.728-13.707,17.788
					c-1.516,1.363,0.793,2.966,2.298,1.612c2.56-2.3,4.776-4.923,6.858-7.555c2.879-3.636,5.469-7.455,7.613-11.42
					c3.88-7.172,7.092-16.688,1.536-22.743C388.099,121.416,385.429,123.192,386.625,124.495L386.625,124.495z"/>
			</g>
		</g>
		<g>
			<g>
				<path fill="none" d="M370.623,132.336c4.856,9.325,2.67,20.549,2.153,30.007"/>
				<path fill="#A1CD3B" d="M369.121,132.91c4.593,9.002,2.663,19.56,2.09,29.658c-0.104,1.809,3.029,1.341,3.13-0.449
					c0.587-10.34,2.485-21.141-2.216-30.355C371.341,130.226,368.33,131.361,369.121,132.91L369.121,132.91z"/>
			</g>
		</g>
		<g>
			<g>
				<path fill="none" d="M387.954,123.602c-13.432-1.906-13.755,5.888-17.331,8.735"/>
				<path fill="#A1CD3B" d="M388.313,122.205c-4.489-0.604-9.612-0.49-13.446,2.801c-1.216,1.044-2.126,2.292-2.993,3.562
					c-0.621,0.908-1.394,2.126-2.074,2.687c-1.565,1.287,0.065,3.465,1.649,2.164c2.098-1.724,3.078-4.119,4.898-6.036
					c2.937-3.093,7.602-2.875,11.251-2.384C389.541,125.26,390.247,122.464,388.313,122.205L388.313,122.205z"/>
			</g>
		</g>
	</g>
	<g>
		<g>
			<path fill="none" d="M403.786,90.367"/>
			<path fill="#077070" d="M404.89,93.569c1.979-0.941,3.297-2.771,2.651-4.637c-0.56-1.619-2.877-2.712-4.858-1.769
				c-1.979,0.941-3.296,2.771-2.651,4.637C400.591,93.419,402.908,94.513,404.89,93.569L404.89,93.569z"/>
		</g>
	</g>
	<path fill="#FFFFFF" stroke="#FFFFFF" d="M403.493,87.934c-0.561-0.434-1.558,0.137-2.225,1.275
		c-0.668,1.139-0.755,2.414-0.195,2.849c0.563,0.434,1.558-0.137,2.226-1.275S404.055,88.368,403.493,87.934z"/>
</g>
<g id="Layer_1">
	<text transform="matrix(1 0 0 1 165.7939 228.3979)" fill="#007070" font-family="'JargonBRK'" font-size="100">ubicon</text>
	<text transform="matrix(1 0 0 1 22.7939 320.3979)" fill="#007070" font-family="'JargonBRK'" font-size="400">r</text>
	<g>
		<g>
			<path fill="none" d="M126.823,311.594c46.479-11.815,94.266-55.008,149.305-45.84c51.548,8.041,96.305,65.892,143.035,19.709"/>
			<path fill="#4876BB" d="M123.831,316.777c48.293-12.581,89.165-50.573,141.491-46.803c23.398,1.687,44.204,13.371,64.777,23.593
				c18.405,9.145,38.94,18.479,59.862,13.119c10.2-2.613,19.001-8.918,26.454-16.146c1.719-1.666,2.919-4.09,4.043-6.166
				c0.262-0.483,1.764-4.29,1.453-3.988c-8.66,8.397-18.689,14.844-30.713,16.959c-9.986,1.757-20.228-0.177-29.753-3.231
				c-21.479-6.887-40.502-19.806-61.536-27.842c-23.675-9.046-48.158-8.379-72.176-0.979c-24.004,7.396-45.937,20.121-68.721,30.435
				c-9.454,4.279-19.146,8.064-29.198,10.684c-1.422,0.37-2.869,3.772-3.51,4.884C126.062,311.715,123.952,316.746,123.831,316.777
				L123.831,316.777z"/>
		</g>
	</g>
	<g>
		<g>
			<g>
				<path fill="none" d="M190.239,149.238c44.293-7.423,89.832-34.561,142.282-28.801c49.123,5.052,91.775,41.399,136.308,12.383"/>
				<path fill="#4876BB" d="M187.247,154.42c23.58-4.067,46.018-12.772,68.874-19.579c24.951-7.431,50.548-12.069,76.603-8.849
					c23.525,2.907,45.402,12.887,68.139,18.985c22.58,6.056,45.023,5.764,65.219-7.081c1.769-1.125,3.095-4.414,4.043-6.167
					c0.201-0.371,1.99-4.33,1.453-3.988c-43.463,27.642-89.88-6.803-134.464-12.313c-50.659-6.261-95.364,20.256-143.882,28.625
					c-1.346,0.232-2.936,3.887-3.51,4.883C189.515,149.295,187.249,154.42,187.247,154.42L187.247,154.42z"/>
			</g>
		</g>
		<g>
			<g>
				<path fill="none" d="M190.563,149.114c-63.849,0-130.557-57.174-187.734-14.451"/>
				<path fill="#4876BB" d="M193.556,143.932c-61.801-0.416-129.82-56.981-187.979-14.345c-1.779,1.304-3.031,4.297-4.043,6.167
					c-0.213,0.394-1.923,4.333-1.452,3.988c13.107-9.609,28.02-14.851,44.232-15.661c15.861-0.792,31.711,2.735,46.889,6.97
					c31.738,8.855,62.883,23.021,96.369,23.247c1.163,0.008,3.062-4.106,3.51-4.883
					C191.242,149.136,193.774,143.933,193.556,143.932L193.556,143.932z"/>
			</g>
		</g>
	</g>
</g>
</svg>
